<svg width="22" height="21" viewBox="0 0 22 21" fill="none" xmlns="http://www.w3.org/2000/svg">
    <mask id="mask0_66_74" style="mask-type:luminance" maskUnits="userSpaceOnUse" x="0" y="0" width="22" height="21">
        <path d="M0.870117 0.51392L21.4969 0.51392V20.0954H0.870117L0.870117 0.51392Z" fill="white"/>
    </mask>
    <g mask="url(#mask0_66_74)">
        <path d="M21.4386 12.1274C21.3833 11.6222 21.1671 11.1661 20.958 10.7247C20.8326 10.4595 20.7029 10.1856 20.6101 9.90463C20.5635 9.7638 20.5197 9.61491 20.4777 9.47128C20.3032 8.87714 20.1232 8.26303 19.653 7.83179C19.1994 7.41561 18.5565 7.30911 17.8433 7.53226C17.5245 7.6314 17.218 7.77293 16.9216 7.91026C16.8389 7.94809 16.7562 7.98663 16.6732 8.02376C16.469 8.11555 16.2581 8.19472 16.0286 8.26478C16.4108 7.96911 16.6953 7.60373 16.8533 7.19456C17.1948 6.3121 16.9496 5.28462 16.243 4.63828C16.0745 4.48379 15.891 4.34541 15.7137 4.21194C15.451 4.01401 15.1795 3.80942 14.9584 3.55229C14.6046 3.14066 14.3079 2.67124 14.064 2.26627C13.6345 1.55512 13.148 0.748684 12.2305 0.588588C11.1701 0.40432 10.1338 1.01948 9.56874 1.60206C9.35715 1.82066 9.17674 2.06834 9.00193 2.3076C8.83412 2.53776 8.66072 2.77598 8.46103 2.98477C8.17517 3.28534 7.85498 3.5656 7.54495 3.8371C7.40027 3.96391 7.25033 4.09528 7.106 4.22665C7.01176 4.31248 6.91332 4.39586 6.80893 4.48414C6.4982 4.74758 6.1766 5.01977 5.97202 5.36344C5.79335 5.66366 5.73695 6.0336 5.80246 6.46519C5.7951 6.46239 5.7874 6.45994 5.78004 6.45713C5.4017 6.31245 4.94733 6.17443 4.44427 6.24834C4.05717 6.30475 3.68969 6.45784 3.38211 6.69115C3.08048 6.91886 2.82965 7.22048 2.65695 7.56379C2.41523 8.04338 2.20679 8.41227 1.98013 8.75978C1.74121 9.12762 1.46936 9.55921 1.27178 10.029C1.25602 10.0658 1.2399 10.1036 1.22309 10.1421C1.06545 10.51 0.869267 10.9675 0.910955 11.3714C0.990127 12.1376 1.18771 13.0659 2.02182 13.4506C2.11886 13.4954 2.21554 13.5371 2.30943 13.5746C2.97363 13.8419 3.63539 13.9778 4.26001 13.9778C4.52204 13.9778 4.77743 13.954 5.02405 13.9056C5.06259 13.8983 5.10077 13.8895 5.13861 13.88C5.291 13.8422 5.43778 13.79 5.58071 13.7326C5.58807 13.7455 5.59577 13.7585 5.60313 13.7714C5.71103 13.9603 5.81297 14.1382 5.89109 14.3148C6.22915 15.0781 6.58648 16.0839 6.34966 17.096C6.30307 17.2946 6.2274 17.4992 6.14718 17.716C5.94539 18.2615 5.7366 18.8252 5.97096 19.3636C6.14017 19.7531 6.54689 19.9563 7.15189 19.9563C7.20934 19.9563 7.26855 19.9546 7.3295 19.9511C7.42689 19.9451 7.52323 19.9378 7.61922 19.9304C7.84622 19.9129 8.06097 19.8968 8.28833 19.8992C8.70696 19.9034 9.00578 19.7703 9.23104 19.4788C9.28043 19.4147 9.32282 19.3489 9.3603 19.2813C9.38483 19.4666 9.44753 19.6358 9.54877 19.7882C9.70852 20.0281 9.98983 20.0884 10.2463 20.0884C10.4197 20.0884 10.5815 20.0607 10.6866 20.0432C10.7665 20.0296 10.846 20.0138 10.9227 19.9984C11.1515 19.9532 11.3673 19.9104 11.6002 19.9192C11.7537 19.9252 11.9099 19.9444 12.0606 19.9626C12.2256 19.983 12.3962 20.0036 12.5664 20.0078C13.1056 20.0218 13.5088 19.8278 13.7642 19.4333C13.8185 19.3499 13.863 19.261 13.8987 19.1671C13.9723 19.2256 14.0546 19.2722 14.1383 19.3135C14.5047 19.4936 14.8495 19.5945 15.2555 19.6407L15.266 19.6417C15.486 19.667 15.7105 19.6925 15.9365 19.6925C16.0976 19.6925 16.2595 19.6792 16.421 19.6438C16.7485 19.5717 17.0764 19.469 17.2582 19.2084C17.4348 18.9558 17.5017 18.5901 17.4425 18.2051C17.4131 18.0145 17.3518 17.8313 17.2926 17.6544C17.2817 17.6222 17.2712 17.5903 17.2607 17.558C17.2057 17.3909 17.1654 17.2161 17.1265 17.0473C17.1115 16.9818 17.0964 16.9159 17.0803 16.8504C16.9409 16.278 16.8603 15.8233 16.8894 15.3269C16.9034 15.0855 17.1055 14.1379 17.1675 13.9333C17.199 13.8296 17.2376 13.7256 17.2747 13.625C17.3097 13.5308 17.3458 13.433 17.3767 13.335C17.3921 13.2856 17.4113 13.2369 17.4334 13.1892C17.584 13.26 17.7308 13.3423 17.8741 13.4225C18.0552 13.5241 18.2426 13.6292 18.4381 13.7119C18.4812 13.7298 18.5233 13.7469 18.5646 13.763C18.8547 13.8748 19.1072 13.9347 19.3511 13.9501C19.3511 13.9501 19.3511 13.9501 19.3514 13.9501C19.3521 13.9501 19.3525 13.9501 19.3532 13.9501C19.3924 13.9529 19.4327 13.9543 19.474 13.9543C19.5112 13.9543 19.549 13.9533 19.5872 13.9508C19.6443 13.9473 19.7031 13.9445 19.763 13.9421C20.0394 13.9291 20.3526 13.9144 20.6112 13.8124C21.248 13.5623 21.5094 12.7755 21.4386 12.1274ZM10.0928 16.657C10.0417 16.8683 9.98843 17.0865 9.92607 17.2985C9.83954 17.5927 9.72078 17.8621 9.59467 18.1476L9.56944 18.2051C9.53651 17.7276 9.38132 17.2519 9.23244 16.8658C9.1403 16.6269 9.05377 16.3915 9.00858 16.1365C8.96199 15.8737 8.57559 14.2815 8.44562 13.8643C8.33982 13.5252 8.21476 13.1934 8.06517 12.8529C8.12648 12.8147 8.18568 12.772 8.24173 12.7314C8.30199 12.6879 8.35909 12.6466 8.41234 12.615C8.74865 12.4164 9.086 12.1355 9.38798 11.802C9.42686 11.7589 9.464 11.7133 9.49903 11.6664C9.60378 11.5249 9.68925 11.3658 9.75441 11.1917C9.95479 10.6599 9.96636 9.97784 9.78594 9.31959C9.72639 9.10169 9.64651 8.89536 9.54913 8.70128C9.63741 8.71249 9.72604 8.723 9.81397 8.73071C9.9047 8.73841 9.99648 8.74157 10.0865 8.74402C10.1324 9.19733 10.1955 9.6517 10.2571 10.0931C10.2788 10.25 10.3009 10.407 10.3219 10.5636C10.4172 11.2712 10.4687 11.9414 10.4785 12.6126C10.4831 12.8971 10.5013 13.185 10.5192 13.4635C10.5423 13.8229 10.5661 14.195 10.5594 14.56C10.551 15.0301 10.426 15.4568 10.2936 15.9087C10.2435 16.0804 10.1916 16.2577 10.1471 16.4363C10.1289 16.5099 10.1107 16.5835 10.0928 16.657ZM13.0422 14.8981C13.0152 14.6728 12.9872 14.4399 12.9504 14.2153C12.8281 13.467 12.7062 12.6718 12.6747 11.8986C12.667 11.7123 12.6701 11.522 12.6733 11.3381C12.6757 11.1724 12.6785 11.0011 12.6736 10.8323C12.6722 10.7769 12.6712 10.676 12.6698 10.5359C12.6666 10.1688 12.6614 9.58163 12.6361 9.00501C12.6414 9.00501 12.6463 9.00501 12.6516 9.00466C12.7465 9.00255 12.8446 9.0001 12.9406 9.0008C13.0134 9.0015 13.0863 9.0022 13.1588 9.00325C13.1889 9.0036 13.2187 9.00395 13.2485 9.00431C13.589 9.00816 13.9369 9.00851 14.2826 8.96647C14.1316 9.1024 14.0027 9.2688 13.9081 9.47724C13.6479 10.0514 13.8384 10.5779 14.0444 10.9181C14.1765 11.1374 14.359 11.35 14.5717 11.5333C14.7773 11.7102 15.0018 11.8682 15.2187 12.0213C15.3014 12.0794 15.3854 12.139 15.4688 12.1996C15.1174 12.7079 14.8824 13.2575 14.7685 13.8391C14.6925 14.2283 14.6281 14.6262 14.566 15.0112C14.4981 15.4299 14.428 15.8629 14.3429 16.285C14.2504 16.7439 14.1019 17.199 13.925 17.5668L13.8941 17.6309C13.8815 17.6565 13.8689 17.6824 13.8566 17.7083C13.7792 17.4712 13.6804 17.2452 13.5838 17.0242C13.4906 16.8126 13.3946 16.5936 13.3193 16.3684C13.1627 15.9003 13.1014 15.3906 13.0422 14.8981Z" fill="#43241E"/>
    </g>
    <path d="M2.05551 13.3763C2.12067 13.4064 2.18513 13.4344 2.24959 13.4614C2.17848 13.2729 2.13258 13.0676 2.11682 12.8613C2.08494 12.4504 2.22367 12.0598 2.52844 11.6937C2.5295 11.6923 2.53055 11.6902 2.53195 11.6888C2.5323 11.6884 2.533 11.6884 2.53335 11.6881C2.66051 11.5364 2.81536 11.3889 2.99962 11.2463C3.53947 10.8284 4.21838 10.4595 4.96351 10.1796C5.07176 10.1386 5.18246 10.1015 5.29526 10.0668C5.29597 10.0665 5.29702 10.0661 5.29772 10.0661C5.87679 9.88884 6.52348 9.7925 7.29734 9.76658C7.29769 9.76658 7.29839 9.76623 7.29874 9.76623C7.29944 9.76588 7.29979 9.76623 7.30049 9.76623C7.33622 9.76518 7.37161 9.76378 7.40804 9.76273C7.49352 9.76063 7.58425 9.75642 7.68059 9.75187C8.27613 9.72349 9.01706 9.68776 9.42097 10.1603C9.47913 10.2283 9.52992 10.3033 9.57371 10.3842C9.57441 10.3849 9.57476 10.3863 9.57511 10.3873C9.66409 10.553 9.7219 10.7433 9.74502 10.9479C9.87078 10.4693 9.85852 9.8969 9.70613 9.34094C9.64273 9.10973 9.5562 8.89183 9.449 8.68865C9.31378 8.67008 9.17925 8.64906 9.04718 8.62839C8.954 8.61368 8.86116 8.59932 8.76833 8.58566C8.64116 8.56709 8.51049 8.55167 8.38403 8.53731C8.18154 8.51384 7.9724 8.48932 7.76922 8.44973C7.421 8.38212 7.08575 8.24339 6.79954 8.04862C6.31154 7.71721 5.97173 7.23097 5.84246 6.67922C5.833 6.63823 5.82495 6.59794 5.81724 6.55801C5.79482 6.5496 5.7724 6.54224 5.74998 6.53349C5.45186 6.41963 5.10504 6.30963 4.72705 6.30963C4.63807 6.30963 4.54733 6.31594 4.4552 6.32925C4.08176 6.3839 3.72759 6.53138 3.43087 6.75629C3.13905 6.97664 2.89663 7.26881 2.72918 7.60056C2.48641 8.08295 2.27621 8.45429 2.04816 8.8046C1.81099 9.16929 1.54159 9.59738 1.34612 10.0608C1.3307 10.098 1.31424 10.1358 1.29777 10.1747C1.14363 10.5334 0.952008 10.9804 0.991594 11.363C1.06831 12.1074 1.25889 13.0091 2.05551 13.3763ZM6.33361 8.12569C6.42785 8.04441 6.63313 8.05317 6.73718 8.14145C6.81915 8.18629 6.85769 8.23744 6.85173 8.29314C6.84543 8.35269 6.78657 8.40244 6.69094 8.42976C6.6489 8.44167 6.6016 8.44868 6.55466 8.44868C6.46603 8.44868 6.3781 8.42381 6.32871 8.36005C6.24148 8.22693 6.30313 8.15161 6.33361 8.12569ZM4.08666 9.84785C4.16443 9.82368 4.25727 9.8468 4.28985 9.9526C4.31087 10.009 4.30071 10.0696 4.26077 10.1165C4.22294 10.1614 4.16408 10.188 4.10628 10.188C4.09507 10.188 4.08421 10.187 4.07335 10.1849C4.01485 10.1737 3.97176 10.1351 3.95179 10.0763C3.95179 10.0759 3.95144 10.0756 3.95144 10.0752C3.91886 9.96907 3.99453 9.87623 4.08666 9.84785ZM2.74844 7.74524C2.81676 7.62158 2.9695 7.51998 3.09736 7.57183C3.10192 7.57358 3.10577 7.57639 3.10962 7.57954C3.1979 7.66046 3.16743 7.8125 3.09141 7.92145C3.0294 8.00973 2.95093 8.05842 2.87561 8.05842C2.84829 8.05842 2.82166 8.05177 2.79644 8.03881C2.79469 8.03776 2.79294 8.03671 2.79153 8.03565C2.7015 7.9712 2.68504 7.86014 2.74844 7.74524ZM2.57889 9.68426C2.62268 9.48633 2.84408 9.28139 3.06478 9.31327C3.34224 9.33674 3.37587 9.47091 3.37131 9.54903C3.3587 9.75677 3.04446 10.0104 2.80415 10.0104C2.80029 10.0104 2.79644 10.0104 2.79258 10.0104C2.78908 10.0101 2.78558 10.0097 2.78208 10.0087C2.62058 9.96031 2.54456 9.8391 2.57889 9.68426ZM2.60692 10.3887C2.68329 10.3047 2.81115 10.2563 2.92501 10.3369C3.00137 10.3831 3.04061 10.4494 3.03536 10.5233C3.02905 10.6144 2.95163 10.7082 2.84794 10.752C2.80975 10.7678 2.77192 10.7759 2.73583 10.7759C2.68048 10.7759 2.62934 10.7573 2.5873 10.7216C2.58555 10.7201 2.58414 10.7187 2.58274 10.7173C2.49061 10.6116 2.53055 10.4728 2.60692 10.3887ZM2.00822 9.25371C2.06287 9.20537 2.16096 9.18365 2.23523 9.23865C2.23628 9.23935 2.23733 9.24005 2.23838 9.2411C2.29338 9.2898 2.31335 9.35285 2.29268 9.41416C2.27096 9.47932 2.2072 9.52871 2.13749 9.53432C2.13293 9.53467 2.12838 9.53502 2.12383 9.53502C2.06252 9.53502 2.00962 9.50069 1.97704 9.43903C1.94061 9.37457 1.95217 9.30346 2.00822 9.25371ZM2.28252 10.4357C2.25239 10.4938 2.19494 10.5331 2.13609 10.5352C2.13398 10.5352 2.13223 10.5352 2.13048 10.5352C2.08004 10.5352 2.03554 10.5086 2.00507 10.4592C1.97214 10.408 1.97004 10.3464 1.99946 10.29C2.03029 10.2315 2.08809 10.1922 2.14695 10.1905C2.19914 10.188 2.24504 10.2157 2.27586 10.2665C2.30914 10.3176 2.31195 10.3796 2.28252 10.4357ZM1.87195 11.4765C1.95777 11.3802 2.0944 11.295 2.22051 11.3458C2.22191 11.3462 2.22297 11.3469 2.22437 11.3476C2.28357 11.3787 2.3165 11.4197 2.32176 11.4688C2.33332 11.5742 2.21141 11.6783 2.10386 11.7697C2.06252 11.8047 2.02328 11.838 2.00367 11.8625C1.99736 11.8706 1.9879 11.8755 1.97809 11.8773C1.95637 11.8804 1.93711 11.8818 1.91959 11.8818C1.82991 11.8818 1.78857 11.844 1.7693 11.8086C1.71886 11.7154 1.78437 11.5746 1.87195 11.4765ZM1.51917 10.7702C1.48029 10.7702 1.4421 10.7531 1.40847 10.7198C1.36398 10.6806 1.35032 10.6133 1.37029 10.5348C1.38956 10.4595 1.44491 10.3705 1.52093 10.3541C1.5479 10.3481 1.5994 10.3471 1.64704 10.4049C1.69433 10.4487 1.71185 10.5201 1.69433 10.5961C1.67542 10.6788 1.61972 10.7468 1.55631 10.765C1.5437 10.7685 1.53144 10.7702 1.51917 10.7702ZM5.92234 6.66065C6.03794 7.156 6.33046 7.5967 6.75084 7.91304C6.74734 7.89798 6.74418 7.88292 6.74138 7.86785C6.74138 7.86715 6.74138 7.86645 6.74103 7.86575C6.73998 7.85874 6.73788 7.85209 6.73683 7.84508C6.68848 7.53119 6.77992 7.19629 7.01603 6.8218C7.39298 6.22591 8.02495 5.91272 8.58756 5.66575C8.6296 5.64753 8.67129 5.62931 8.71298 5.61074C8.93858 5.51125 9.1705 5.40966 9.41011 5.33119C9.41081 5.33084 9.41116 5.33014 9.41222 5.33014C9.41327 5.32944 9.41432 5.32979 9.41537 5.32944C9.47597 5.30982 9.53658 5.29125 9.59789 5.27514C9.8298 5.21418 10.0841 5.16934 10.3658 5.13886C10.3668 5.13851 10.3679 5.13816 10.3686 5.13781C10.37 5.13781 10.3714 5.13816 10.3728 5.13816C10.5066 5.1238 10.646 5.11259 10.7932 5.10488C11.223 5.08176 11.6515 5.13326 12.089 5.19281C12.2403 5.21348 12.3952 5.23065 12.5451 5.24746C12.7693 5.27199 12.9998 5.29826 13.2272 5.33715C13.2286 5.33715 13.2296 5.3368 13.231 5.33715C13.2321 5.33715 13.2328 5.33785 13.2338 5.3382C13.2748 5.3452 13.3162 5.35186 13.3572 5.35992C13.4153 5.37113 13.4745 5.38199 13.5341 5.3932C13.8536 5.4524 14.1843 5.51336 14.4789 5.64367C14.8457 5.80552 15.1014 6.10294 15.2517 6.32364C15.4797 6.6582 15.6094 7.07193 15.6286 7.4846C15.6307 7.49126 15.6314 7.49791 15.6297 7.50457C15.6391 7.75365 15.6087 8.00167 15.5351 8.23148C15.5151 8.29454 15.4913 8.35515 15.4654 8.41435C15.5127 8.40244 15.56 8.39053 15.6066 8.37932C15.6717 8.36355 15.7341 8.34744 15.7957 8.33097C16.2589 8.02409 16.5994 7.62263 16.7763 7.16511C17.1052 6.31384 16.8688 5.32243 16.187 4.69851C16.021 4.54683 15.8392 4.40985 15.6633 4.27708C15.3974 4.0767 15.1221 3.86931 14.8954 3.60552C14.5377 3.18934 14.2386 2.71641 13.993 2.30864C13.5523 1.57822 13.0965 0.822934 12.2155 0.669494C11.1866 0.490481 10.178 1.09058 9.62661 1.65915C9.41922 1.87354 9.24021 2.11876 9.06715 2.35593C8.89795 2.58819 8.72279 2.82851 8.5196 3.0415C8.23129 3.34418 7.90935 3.62619 7.59826 3.89874C7.45358 4.0252 7.304 4.15622 7.16036 4.28724C7.06473 4.37412 6.96103 4.4617 6.86119 4.54683C6.55536 4.80571 6.23902 5.07336 6.04144 5.40546C5.84492 5.73546 5.80498 6.15759 5.92234 6.66065ZM15.7257 6.15514C15.7369 6.07982 15.7751 6.02657 15.8297 6.00941C15.8781 5.99434 15.9586 6.00135 16.0704 6.11871C16.166 6.19087 16.1688 6.34747 16.1107 6.44486C16.0756 6.50406 16.0238 6.53524 15.966 6.53524C15.9394 6.53524 15.9113 6.52858 15.8833 6.51492C15.8812 6.51387 15.8798 6.51317 15.8781 6.51177C15.7554 6.42804 15.7085 6.26899 15.7257 6.15514ZM14.3846 4.74896C14.4554 4.6866 14.6011 4.68555 14.6849 4.77664C14.7865 4.86667 14.7795 4.94654 14.7665 4.98613C14.7458 5.04778 14.6852 5.09157 14.6117 5.09718C14.606 5.09753 14.6001 5.09788 14.5948 5.09788C14.5125 5.09788 14.4389 5.05058 14.3948 4.96826C14.3135 4.87192 14.336 4.79205 14.3846 4.74896ZM13.6886 3.59746C13.7443 3.54106 13.856 3.54947 13.9215 3.59221C13.9832 3.63249 14.0035 3.6987 13.9755 3.76877C13.9741 3.77192 13.9727 3.77472 13.9706 3.77753C13.9471 3.8101 13.91 3.83007 13.8658 3.83323C13.8613 3.83358 13.8567 3.83393 13.8522 3.83393C13.7965 3.83393 13.7362 3.8094 13.6984 3.77052C13.6966 3.76877 13.6949 3.76667 13.6935 3.76456C13.6315 3.67208 13.6693 3.61673 13.6886 3.59746ZM13.6255 3.91975C13.6294 3.9173 13.6336 3.91555 13.6381 3.91415C13.7965 3.87211 13.9769 3.9667 14.0851 4.07915C14.0865 4.08055 14.0876 4.08195 14.089 4.0837C14.171 4.19791 14.1934 4.28689 14.1548 4.34784C14.1279 4.39093 14.0743 4.413 14.0014 4.413C13.9762 4.413 13.9488 4.41055 13.9194 4.40495C13.7719 4.37867 13.5495 4.27428 13.518 4.12504C13.5067 4.07214 13.5166 3.99367 13.6255 3.91975ZM12.7017 3.70466C12.7045 3.69975 12.7087 3.6952 12.7136 3.6917C12.7648 3.65526 12.8383 3.64405 12.9105 3.66087C12.9802 3.67733 13.0363 3.71692 13.0643 3.76982C13.0664 3.77332 13.0678 3.77717 13.0685 3.78103C13.0913 3.89313 13.0303 3.93867 13.003 3.95304C12.9785 3.966 12.949 3.97195 12.9182 3.97195C12.8509 3.97195 12.7767 3.94323 12.7276 3.89278C12.6744 3.83778 12.6649 3.76912 12.7017 3.70466ZM9.94785 4.45504C9.94925 4.45609 9.95066 4.45749 9.95206 4.4589C9.9983 4.50969 10.0144 4.55839 9.99935 4.60288C9.98219 4.65367 9.92824 4.6887 9.84311 4.70447C9.81403 4.71007 9.7818 4.71253 9.74922 4.71253C9.64973 4.71253 9.54499 4.68695 9.4998 4.6323C9.49804 4.6302 9.49629 4.62775 9.49489 4.6253C9.43253 4.50619 9.47878 4.44313 9.51206 4.41616C9.61645 4.33138 9.85747 4.38042 9.94785 4.45504ZM9.36737 3.61848C9.36843 3.61708 9.36983 3.61568 9.37088 3.61463C9.41642 3.57329 9.47177 3.56068 9.52292 3.57959C9.56846 3.59606 9.60139 3.6367 9.60734 3.68259C9.614 3.73233 9.58948 3.78068 9.53973 3.81536C9.51416 3.83218 9.48859 3.83918 9.46441 3.83918C9.42553 3.83918 9.3912 3.82061 9.36843 3.79469C9.32323 3.74319 9.32253 3.67068 9.36737 3.61848ZM8.90846 4.63616C8.93263 4.64071 8.98833 4.66033 8.99323 4.74511C9.00655 4.80291 8.98763 4.85756 8.94104 4.89539C8.90706 4.92272 8.86257 4.93743 8.81842 4.93743C8.7897 4.93743 8.76097 4.93113 8.73575 4.91851C8.73365 4.91746 8.73155 4.91606 8.72944 4.91466C8.68005 4.87858 8.66534 4.82358 8.68951 4.76788C8.72454 4.68695 8.83314 4.62214 8.90846 4.63616ZM8.14546 4.17374C8.25967 4.07284 8.38438 4.05498 8.48142 4.12399C8.60298 4.14221 8.67304 4.1888 8.68986 4.26272C8.71718 4.38498 8.57776 4.52476 8.44989 4.60708C8.35705 4.66699 8.23514 4.71953 8.1304 4.71953C8.08205 4.71953 8.03721 4.70832 8.00113 4.681C7.99693 4.67785 7.99342 4.67399 7.99062 4.66944C7.90619 4.52896 8.00253 4.2995 8.14546 4.17374ZM7.78849 5.13431C7.78954 5.13431 7.79059 5.13431 7.79199 5.13431C7.8589 5.13886 7.91005 5.17074 7.93632 5.22469C7.96785 5.28985 7.95699 5.38129 7.909 5.45135C7.86801 5.5116 7.8081 5.54524 7.74259 5.54524C7.73769 5.54524 7.73244 5.54489 7.72718 5.54453C7.63049 5.53403 7.57129 5.46571 7.57514 5.36938C7.58005 5.26008 7.66868 5.13676 7.78849 5.13431ZM6.74699 4.84775C6.79113 4.78574 6.85979 4.75036 6.92215 4.75807C6.95403 4.76227 7.01183 4.78119 7.04441 4.86527C7.07664 4.96055 7.00763 5.05969 6.9253 5.09788C6.90008 5.10944 6.8745 5.11504 6.85068 5.11504C6.80059 5.11504 6.7561 5.09017 6.72807 5.04358C6.72772 5.04253 6.72702 5.04148 6.72667 5.04078C6.69654 4.98052 6.70425 4.90836 6.74699 4.84775ZM21.356 12.1365C21.302 11.645 21.0891 11.1948 20.8831 10.7597C20.7566 10.4924 20.6256 10.216 20.5313 9.93053C20.4841 9.78795 20.4403 9.63871 20.3982 9.49403C20.2269 8.9111 20.05 8.30785 19.5967 7.89202C19.3136 7.63244 18.9521 7.50037 18.5436 7.50037C18.3292 7.50037 18.1022 7.5368 17.8665 7.61037C17.5529 7.70776 17.2489 7.84858 16.9549 7.98451C16.8719 8.02269 16.7892 8.06088 16.7059 8.09836C16.3783 8.24585 16.035 8.3604 15.6258 8.45884C14.9921 8.61158 14.2904 8.83158 13.9821 9.51085C13.7495 10.0237 13.8995 10.498 14.082 10.8214C14.1583 10.7205 14.2473 10.6431 14.3125 10.5933C14.4859 10.4613 14.6975 10.3628 14.9417 10.3008C15.2478 10.2237 15.5148 10.1821 15.7348 10.1775C16.041 10.1712 16.3527 10.2868 16.6284 10.3891L16.6915 10.4122C16.9812 10.5201 17.2331 10.6273 17.4608 10.7401C17.6969 10.8575 17.9467 11.0109 18.1877 11.1952C18.1884 11.1955 18.1895 11.1955 18.1902 11.1962C18.1916 11.1969 18.1919 11.1983 18.193 11.199C18.7706 11.6418 19.2954 12.263 19.4569 12.9965C19.4573 12.9972 19.458 12.9979 19.458 12.9986C19.4583 12.9997 19.458 13.0004 19.458 13.0011C19.4765 13.0852 19.4905 13.1706 19.499 13.2575C19.507 13.3437 19.5074 13.4274 19.5007 13.5087C19.5007 13.509 19.5007 13.509 19.5007 13.5094C19.5007 13.5097 19.5007 13.5097 19.5007 13.5101C19.4902 13.6387 19.4615 13.7602 19.4149 13.8706C19.4688 13.8727 19.5242 13.8727 19.5813 13.8695C19.6387 13.8657 19.6979 13.8629 19.7582 13.8604C20.0413 13.8471 20.3341 13.8334 20.58 13.7367C21.1791 13.5013 21.4236 12.7534 21.356 12.1365ZM14.5703 10.2304C14.5486 10.2392 14.5265 10.2434 14.5059 10.2434C14.4526 10.2434 14.4053 10.2167 14.3797 10.1684C14.3503 10.1173 14.3496 10.0637 14.3783 10.0209C14.4109 9.97222 14.4757 9.94524 14.5398 9.95365C14.5994 9.96171 14.6442 9.99884 14.6628 10.0552C14.6838 10.1292 14.6456 10.2006 14.5703 10.2304ZM15.9261 9.89059C15.8784 9.92563 15.809 9.9505 15.733 9.9505C15.6749 9.9505 15.6129 9.93579 15.554 9.90005C15.4531 9.83489 15.4682 9.76098 15.4797 9.7319C15.5162 9.63801 15.6654 9.57776 15.7625 9.59422C15.9341 9.6191 15.9856 9.68426 15.9982 9.73435C16.0115 9.789 15.9849 9.84715 15.9261 9.89059ZM16.4883 9.53712C16.4627 9.55149 16.433 9.56024 16.4028 9.56024C16.3555 9.56024 16.3075 9.53852 16.2753 9.48317C16.248 9.43658 16.2497 9.38123 16.2799 9.33148C16.3156 9.27333 16.3832 9.23515 16.4445 9.23795C16.4943 9.24075 16.5342 9.26913 16.557 9.31747C16.6064 9.40505 16.5587 9.49648 16.4883 9.53712ZM17.6528 10.3968C17.6209 10.4147 17.5827 10.4241 17.5438 10.4241C17.4759 10.4241 17.4068 10.3951 17.3704 10.332C17.369 10.3302 17.3683 10.3281 17.3676 10.3264C17.3214 10.2069 17.3729 10.1201 17.4447 10.0868C17.5246 10.05 17.6433 10.0735 17.706 10.1891C17.7509 10.2721 17.7298 10.3537 17.6528 10.3968ZM18.1527 9.22989C18.1261 9.25441 18.0914 9.26738 18.057 9.26738C18.0402 9.26738 18.0234 9.26422 18.0073 9.25792C17.9547 9.23655 17.9222 9.1847 17.9176 9.11569C17.9061 9.02846 17.9663 8.97521 18.0276 8.9626C18.0921 8.94929 18.1691 8.97836 18.1909 9.05999C18.2112 9.12515 18.1968 9.18925 18.1527 9.22989ZM18.8673 10.5825C18.8453 10.6487 18.779 10.6932 18.6943 10.6988C18.6887 10.6991 18.6831 10.6995 18.6771 10.6995C18.5762 10.6995 18.4389 10.6431 18.3587 10.4819C18.2665 10.3719 18.2704 10.2924 18.29 10.2448C18.3138 10.1877 18.373 10.1502 18.4483 10.1442C18.5314 10.1376 18.6547 10.1723 18.7307 10.291C18.888 10.428 18.8838 10.5324 18.8673 10.5825ZM19.1549 11.4278C19.1413 11.4306 19.1269 11.432 19.1126 11.432C19.0253 11.432 18.9328 11.3777 18.9048 11.2705C18.8792 11.1924 18.8961 11.1192 18.9511 11.0698C19.012 11.0155 19.1101 11.0008 19.1851 11.0351C19.2527 11.0659 19.2912 11.1304 19.2909 11.2116C19.3108 11.3364 19.2373 11.4099 19.1549 11.4278ZM19.5427 10.9006C19.52 10.9261 19.4902 10.9391 19.4576 10.9391C19.4341 10.9391 19.4096 10.9324 19.3844 10.9191C19.3206 10.8901 19.2874 10.8287 19.2954 10.7552C19.3042 10.6746 19.3585 10.6042 19.4212 10.5912C19.445 10.5863 19.5053 10.5839 19.5512 10.6651C19.5974 10.731 19.5946 10.8424 19.5427 10.9006ZM19.9649 12.5439C19.9369 12.5667 19.905 12.5779 19.8724 12.5779C19.8353 12.5779 19.7974 12.5635 19.7631 12.5352C19.762 12.5341 19.7606 12.5327 19.7592 12.5316C19.6692 12.435 19.6675 12.3057 19.706 12.2209C19.7361 12.1544 19.7883 12.1162 19.8444 12.1172C19.8927 12.1186 19.9614 12.1495 20.0153 12.2882C20.0644 12.3824 20.0286 12.4917 19.9649 12.5439Z" fill="#5ED1F3"/>
    <path d="M7.96076 10.7639C7.81047 11.096 7.58697 11.4194 7.35191 11.6537C7.24156 11.5381 7.11824 11.439 6.97987 11.3626C7.11999 11.1629 7.21353 10.9237 7.29235 10.7037C7.37783 10.4637 7.36347 10.2199 7.34945 9.98412C7.347 9.93858 7.34455 9.89269 7.3428 9.8468C7.36487 9.8461 7.38694 9.84539 7.40936 9.84469C7.49589 9.84259 7.58732 9.83839 7.68401 9.83348C7.8406 9.82613 8.00805 9.81842 8.17586 9.81947C8.17516 9.84329 8.17481 9.86747 8.1741 9.89094C8.17165 10.0433 8.16885 10.187 8.12156 10.3467C8.08582 10.4672 8.03328 10.6038 7.96076 10.7639ZM2.69686 12.8263C3.10569 12.9695 3.58457 13.0669 4.12091 13.1153C4.43865 13.1437 4.86114 13.0806 5.17677 12.8883C5.14139 12.7734 5.11652 12.6571 5.10706 12.539C5.00827 12.5702 4.89757 12.5838 4.80544 12.5947C4.77601 12.5982 4.74903 12.6014 4.72486 12.6049L4.70665 12.6077C4.59665 12.6238 4.4905 12.6392 4.3819 12.6392C4.31184 12.6392 4.24072 12.6325 4.1668 12.6157C3.80527 12.5323 3.43604 12.3859 3.06925 12.181C2.89339 12.0822 2.71508 11.9414 2.56199 11.7813C2.34725 12.0507 2.22604 12.3327 2.19976 12.6255C2.35951 12.7047 2.53256 12.7685 2.69686 12.8263ZM4.61136 11.9151C4.27821 11.776 3.93104 11.5339 3.72715 11.2985C3.66269 11.2243 3.6084 11.1426 3.5562 11.0631C3.54008 11.0389 3.52362 11.0144 3.50715 10.9899C3.34531 11.0929 3.19222 11.2001 3.04929 11.3108C2.87868 11.4429 2.7347 11.5788 2.61489 11.7182C2.76343 11.8751 2.93788 12.0135 3.10919 12.1095C3.46932 12.3106 3.8312 12.4542 4.18502 12.5362C4.35808 12.5758 4.52168 12.552 4.69473 12.5267L4.71295 12.5239C4.73747 12.5204 4.7655 12.5169 4.79563 12.5134C4.89091 12.5019 5.00757 12.4879 5.10286 12.4546C5.1004 12.339 5.11302 12.222 5.14419 12.1029C5.14665 12.0937 5.1498 12.0846 5.1526 12.0755C5.00512 12.0573 4.8261 12.0044 4.61136 11.9151ZM4.91228 11.2638C4.8706 11.2193 4.82716 11.1756 4.78372 11.1318C4.72276 11.0705 4.66005 11.0074 4.60225 10.9429C4.51993 10.8501 4.46177 10.7482 4.40572 10.6494C4.38365 10.6108 4.36088 10.572 4.33741 10.5331C4.06871 10.6602 3.81368 10.7986 3.57617 10.9464C3.59263 10.9703 3.60875 10.9944 3.62451 11.0179C3.67776 11.0985 3.7282 11.1749 3.78881 11.2449C3.98534 11.4716 4.32024 11.7049 4.64289 11.8394C4.85868 11.9291 5.03805 11.9816 5.17958 11.9967C5.23002 11.8709 5.30849 11.7532 5.41044 11.6492C5.18343 11.536 4.99706 11.3546 4.91228 11.2638ZM8.36923 12.5443C8.69853 12.3502 9.02923 12.0745 9.32595 11.7469C9.47379 11.5837 9.5908 11.3893 9.67382 11.1696C9.67627 10.9405 9.63494 10.7247 9.55541 10.5362C9.52178 10.6809 9.47449 10.8231 9.41213 10.9685C9.25239 11.3381 8.95742 11.742 8.64213 12.0233C8.50586 12.1452 8.31528 12.2493 8.14713 12.3348C8.10474 12.3565 8.06095 12.3807 8.01646 12.4052C7.97442 12.4286 7.93168 12.4521 7.88859 12.4742C7.93659 12.5719 7.98178 12.67 8.02522 12.766C8.02697 12.7699 8.02872 12.7737 8.03047 12.7776C8.08512 12.7429 8.13907 12.7036 8.19232 12.6651C8.25398 12.6203 8.31248 12.5782 8.36923 12.5443ZM7.97688 12.3337C8.02207 12.3088 8.06656 12.284 8.11 12.2619C8.2736 12.1785 8.45821 12.078 8.58783 11.9624C8.88981 11.6926 9.18372 11.2898 9.33681 10.9363C9.41248 10.7611 9.46433 10.5902 9.49691 10.4147C9.45697 10.3421 9.41073 10.2745 9.35818 10.2136C9.25204 10.0889 9.11822 10.0023 8.96863 9.94243C8.96302 10.0216 8.95602 10.1004 8.94796 10.1768C8.94165 10.242 8.935 10.3071 8.92974 10.3733C8.86984 11.1398 8.42108 11.7921 7.71694 12.1519C7.76458 12.2335 7.80942 12.3169 7.85181 12.401C7.89385 12.3796 7.93554 12.3565 7.97688 12.3337ZM5.5383 13.6607C5.48576 13.5679 5.43391 13.4747 5.38521 13.3808C5.20025 13.468 4.982 13.5157 4.81559 13.5455C4.74063 13.5588 4.66461 13.5616 4.59139 13.564C4.52763 13.5665 4.46177 13.5686 4.39942 13.578C4.34932 13.5858 4.30028 13.598 4.25263 13.6099C4.18047 13.6281 4.10585 13.6467 4.02387 13.6502C3.8855 13.6562 3.74362 13.6607 3.59999 13.6607C3.32218 13.6607 3.03632 13.6443 2.75257 13.5896C2.65027 13.57 2.50384 13.5402 2.35145 13.4978C2.3525 13.5003 2.35355 13.5027 2.3546 13.5048C3.27734 13.8737 4.19413 13.9844 5.00687 13.8254C5.19044 13.7893 5.367 13.7294 5.5383 13.6607ZM5.83537 11.3581C5.82697 11.3248 5.81856 11.2915 5.81085 11.2586C5.76776 11.0831 5.72362 10.902 5.642 10.7317C5.55197 10.5443 5.43356 10.3499 5.29028 10.1537C5.18868 10.1856 5.08919 10.2192 4.99181 10.256C4.79317 10.3306 4.59945 10.4119 4.41203 10.4984C4.43445 10.5355 4.45617 10.5727 4.47684 10.6087C4.53324 10.7082 4.58649 10.8021 4.66356 10.8883C4.71961 10.9514 4.78161 11.0137 4.84152 11.074C4.88566 11.1185 4.9298 11.1626 4.97219 11.2078C5.13053 11.3777 5.30744 11.5105 5.47384 11.5886C5.57228 11.5014 5.68824 11.4257 5.81856 11.3654C5.82416 11.3626 5.82977 11.3605 5.83537 11.3581ZM8.84812 10.367C8.85337 10.3001 8.86003 10.2342 8.86669 10.1684C8.87509 10.085 8.8835 9.99954 8.88841 9.91406C8.69398 9.8503 8.47643 9.82648 8.25783 9.82052C8.25713 9.84469 8.25643 9.86887 8.25608 9.89234C8.25328 10.0503 8.25047 10.1996 8.20038 10.3698C8.1636 10.4942 8.10965 10.634 8.03538 10.7979C7.88054 11.1395 7.65003 11.4726 7.40691 11.7143C7.50535 11.8264 7.59398 11.9508 7.67455 12.0818C8.35592 11.7354 8.79067 11.1062 8.84812 10.367ZM4.02002 13.5686C4.09394 13.5654 4.1612 13.5483 4.23266 13.5304C4.28206 13.5181 4.33321 13.5055 4.38715 13.4971C4.45442 13.487 4.52238 13.4845 4.58859 13.4824C4.66216 13.4796 4.73187 13.4772 4.80088 13.4649C5.02999 13.4239 5.21076 13.3717 5.34808 13.3076C5.29273 13.1958 5.24298 13.0827 5.2027 12.9685C4.92314 13.1328 4.57002 13.2036 4.27015 13.2036C4.21585 13.2036 4.1633 13.2011 4.11321 13.1965C3.57056 13.1475 3.08502 13.0491 2.66989 12.9033C2.51365 12.8483 2.3497 12.7877 2.19486 12.7138C2.19381 12.7604 2.19416 12.8073 2.19766 12.855C2.21237 13.0424 2.25231 13.2291 2.31432 13.4018C2.48422 13.4526 2.65378 13.4873 2.76798 13.5094C3.19046 13.5903 3.61961 13.5858 4.02002 13.5686ZM6.49187 11.0428C6.48732 11.0943 6.48136 11.1601 6.47155 11.2267C6.62815 11.2309 6.77773 11.2631 6.907 11.3241C7.04468 11.1307 7.13716 10.8939 7.21528 10.676C7.29515 10.4518 7.28184 10.2269 7.26783 9.98903C7.26503 9.94278 7.26292 9.89619 7.26082 9.8496C6.91786 9.86221 6.60082 9.88883 6.3034 9.93087C6.37662 10.1467 6.45194 10.3695 6.48381 10.6021C6.50238 10.7401 6.50553 10.8918 6.49327 11.0288L6.49187 11.0428ZM6.4106 11.0354L6.41165 11.0214C6.42356 10.8904 6.42041 10.745 6.40289 10.6129C6.37171 10.3877 6.29745 10.1677 6.22528 9.95469L6.22108 9.94243C5.9198 9.98833 5.63884 10.05 5.37295 10.1285C5.51168 10.3208 5.62728 10.5117 5.71592 10.6963C5.80104 10.8743 5.84658 11.0596 5.89037 11.239C5.89738 11.268 5.90439 11.2971 5.91174 11.3262C6.06834 11.2659 6.23124 11.2323 6.38853 11.2267C6.39939 11.157 6.40569 11.0862 6.4106 11.0354ZM10.8632 6.71775C10.8365 6.6631 10.8096 6.60845 10.7829 6.5545C10.6985 6.38389 10.6109 6.20768 10.5402 6.02867C10.4543 5.81182 10.3871 5.54102 10.3394 5.22398C10.0753 5.25376 9.83672 5.29685 9.61812 5.3543C9.57153 5.36691 9.52494 5.38058 9.47869 5.39494C9.57153 5.65207 9.69169 5.92883 9.83602 6.21889C9.94497 6.43714 10.0918 6.59724 10.2585 6.76924C10.2963 6.80813 10.3356 6.85297 10.3773 6.90026C10.3839 6.90797 10.3909 6.91568 10.3976 6.92338C10.4627 6.87854 10.5374 6.83826 10.6239 6.80427C10.7076 6.77134 10.7871 6.74262 10.8632 6.71775ZM11.3872 6.05985C11.3848 5.83914 11.3757 5.5123 11.3277 5.19246C11.1501 5.1809 10.9735 5.17704 10.7969 5.1865C10.6659 5.19351 10.5412 5.20332 10.4211 5.21523C10.4676 5.52456 10.5332 5.78835 10.6162 5.99854C10.6859 6.1744 10.7724 6.34921 10.8561 6.51841C10.8849 6.57587 10.9136 6.63437 10.9423 6.69322C11.0842 6.65154 11.2135 6.62491 11.3319 6.61475C11.3722 6.44029 11.3893 6.26688 11.3872 6.05985ZM12.4561 7.45131C12.5468 7.42154 12.6344 7.3865 12.7055 7.35813C12.9115 7.2758 13.1087 7.12061 13.2744 6.98013C13.6076 6.69813 13.8388 6.28931 14.0293 5.92848C14.0871 5.81918 14.1323 5.71758 14.1688 5.61844C13.9579 5.55539 13.7358 5.5137 13.5186 5.47341C13.4587 5.46255 13.3995 5.45134 13.341 5.44013C13.3122 5.43453 13.2832 5.42997 13.2544 5.42507C13.1805 5.77399 13.0288 6.11099 12.943 6.28405C12.7952 6.58357 12.538 6.8901 12.2697 7.10275C12.3191 7.17666 12.3674 7.25899 12.4151 7.35007C12.4294 7.3781 12.4431 7.41208 12.4561 7.45131ZM10.3317 6.97243C10.3265 6.96647 10.3212 6.96017 10.316 6.95421C10.275 6.90762 10.2361 6.86383 10.2 6.82634C10.0346 6.65574 9.87666 6.48373 9.7628 6.25532C9.61637 5.96141 9.49481 5.6808 9.40057 5.42016C9.17672 5.49548 8.95847 5.59182 8.74548 5.68571C8.70379 5.70427 8.66175 5.72249 8.62006 5.74071C8.47258 5.80551 8.32019 5.87523 8.1692 5.953C8.24487 6.06965 8.32054 6.17405 8.40006 6.27004C8.60955 6.52297 8.86739 6.74227 9.23592 6.98189C9.33646 7.04705 9.80869 7.23657 10.0798 7.31784C10.1317 7.19033 10.2116 7.07192 10.3317 6.97243ZM12.2231 7.03584C12.4802 6.83125 12.7272 6.53628 12.8698 6.24797C12.9535 6.07841 13.1013 5.75016 13.1739 5.4107C12.9612 5.37637 12.7458 5.35185 12.5356 5.32873C12.3933 5.31297 12.2469 5.2965 12.1026 5.27723C12.1082 5.36096 12.1113 5.44679 12.1103 5.53437C12.1078 5.72039 12.069 5.89379 12.0108 6.09663C11.9709 6.23536 11.9162 6.37268 11.8637 6.5058C11.8416 6.5622 11.8188 6.61931 11.7975 6.67676C11.9572 6.74402 12.0952 6.86243 12.2231 7.03584ZM15.4569 8.2066C15.5213 8.00447 15.5508 7.78762 15.5487 7.56902C15.4695 7.61666 15.3858 7.6601 15.294 7.70074C14.8267 7.90883 14.2718 8.14109 13.6965 8.28507C13.5648 8.318 13.432 8.33657 13.3035 8.35444C13.224 8.36565 13.1416 8.37721 13.0614 8.39192L13.0197 8.39998C12.9059 8.42135 12.7514 8.45077 12.6035 8.45673C12.6095 8.538 12.6148 8.62138 12.6197 8.70581C12.6852 8.70966 12.7507 8.71211 12.8155 8.71421C12.9101 8.71702 13.0078 8.72017 13.1034 8.72963C13.3452 8.7531 13.5477 8.75976 13.7407 8.7503C14.0984 8.73313 14.4525 8.69565 14.7552 8.65781C14.9496 8.56568 15.157 8.49772 15.3634 8.44132C15.3991 8.3667 15.4306 8.28823 15.4569 8.2066ZM13.7445 8.83192C13.6874 8.83472 13.6289 8.83613 13.5694 8.83613C13.424 8.83613 13.2695 8.82807 13.0954 8.8109C13.0022 8.80179 12.9059 8.79899 12.8127 8.79584C12.7503 8.79374 12.6873 8.79199 12.6242 8.78813C12.6267 8.83297 12.6291 8.87816 12.6312 8.92335C12.6368 8.92335 12.6424 8.923 12.6484 8.923C12.7437 8.9209 12.8425 8.91845 12.9398 8.91915C13.0127 8.9195 13.0859 8.92055 13.1584 8.92125C13.568 8.92651 13.9891 8.93141 14.4024 8.8673C14.4522 8.83017 14.504 8.79584 14.5573 8.76396C14.304 8.79269 14.0255 8.81861 13.7445 8.83192ZM9.99401 7.88045C9.88857 7.88045 9.77681 7.85803 9.67767 7.83772C9.63143 7.82826 9.58729 7.8195 9.54981 7.81424C9.4836 7.80479 9.41774 7.79988 9.35398 7.79533C9.23347 7.78622 9.10911 7.77746 8.98229 7.73612C8.85302 7.69373 8.722 7.64224 8.59519 7.59249C8.51426 7.56061 8.43089 7.52768 8.34891 7.49756L8.29146 7.47689C8.11105 7.41138 7.92433 7.34342 7.75968 7.23622C7.66404 7.17386 7.57576 7.1031 7.49028 7.03478C7.4605 7.01096 7.43073 6.98679 7.3999 6.96297C7.31022 6.8929 7.2384 6.81513 7.17324 6.73876C7.14277 6.77975 7.11264 6.82144 7.08496 6.86558C6.86076 7.22115 6.77318 7.53574 6.81662 7.82826C6.83904 7.83947 6.86251 7.84998 6.88773 7.86014C6.98442 7.89727 7.08706 7.92284 7.1862 7.94772C7.22824 7.95858 7.26993 7.96909 7.31127 7.9803L7.35681 7.99256C7.60133 8.05982 7.85391 8.12918 8.09774 8.14249C8.1734 8.14705 8.24977 8.1481 8.32404 8.14915C8.47678 8.15125 8.63512 8.15335 8.79207 8.18418C9.03904 8.23288 9.27376 8.25495 9.53159 8.25214C9.69869 8.25039 9.87035 8.24409 10.0248 8.208C10.0115 8.10746 9.99927 7.99606 9.99541 7.88045C9.99506 7.88045 9.99471 7.88045 9.99401 7.88045ZM9.19143 7.05055C8.81519 6.80638 8.55175 6.58182 8.337 6.32224C8.25398 6.22204 8.17481 6.11309 8.09633 5.99118C7.77474 6.16354 7.46436 6.37794 7.22439 6.67255C7.29165 6.75208 7.36101 6.8288 7.45035 6.89851C7.48117 6.92233 7.5113 6.94685 7.54143 6.97068C7.62901 7.04109 7.71203 7.1073 7.80417 7.16756C7.96111 7.26985 8.14328 7.33606 8.31949 7.39982L8.37694 7.42084C8.45997 7.45131 8.54369 7.48424 8.62497 7.51612C8.75073 7.56552 8.8807 7.61666 9.00751 7.65835C9.12487 7.69619 9.23908 7.70459 9.35994 7.71335C9.42509 7.71826 9.49236 7.72316 9.56137 7.73297C9.60131 7.73893 9.6465 7.74803 9.69414 7.75749C9.78908 7.77676 9.89697 7.79848 9.99436 7.79848C9.99541 7.66326 10.0105 7.52453 10.0522 7.39316C9.73653 7.30068 9.24153 7.08278 9.19143 7.05055ZM9.49481 8.33412C9.24608 8.33412 9.01662 8.31205 8.7763 8.2644C8.62637 8.23498 8.47888 8.23288 8.32264 8.23077C8.24802 8.22972 8.1706 8.22867 8.09318 8.22447C7.84095 8.21046 7.58382 8.13969 7.33509 8.07173L7.2899 8.05912C7.24891 8.04791 7.20757 8.03775 7.16624 8.02724C7.06499 8.00167 6.9599 7.97539 6.85831 7.93651C6.8513 7.9337 6.84499 7.93055 6.83799 7.92775C6.84359 7.94842 6.8492 7.96874 6.85585 7.98835C7.13085 8.17297 7.4514 8.30469 7.7842 8.3695C7.98458 8.40839 8.19197 8.43256 8.39305 8.45568C8.51987 8.47039 8.65124 8.48581 8.77981 8.50472C8.87299 8.51839 8.96583 8.53275 9.05936 8.54746C9.30844 8.58635 9.56627 8.62663 9.8199 8.64905C9.90468 8.65641 9.99156 8.65956 10.0767 8.66202C10.0714 8.60632 10.0662 8.55026 10.0613 8.49491C10.0567 8.43956 10.0476 8.3737 10.0378 8.30364C10.0371 8.29909 10.0364 8.29418 10.0357 8.28928C9.87596 8.32571 9.7015 8.33237 9.53229 8.33412C9.51968 8.33412 9.50707 8.33412 9.49481 8.33412ZM13.685 7.55816C13.7116 7.541 13.7382 7.52383 13.7641 7.50701C13.9197 7.40752 14.0665 7.31329 14.1999 7.17316C14.2977 7.07017 14.394 6.96087 14.4872 6.85542C14.5863 6.74297 14.689 6.62701 14.7941 6.51701L14.8148 6.49564C14.9013 6.40526 14.9903 6.31138 15.0645 6.21013C14.9181 6.03042 14.7121 5.83634 14.4455 5.71864C14.3814 5.69026 14.3148 5.66539 14.2472 5.64297C14.2094 5.74666 14.1621 5.85281 14.1019 5.96666C13.9078 6.3345 13.6717 6.75103 13.3273 7.04249C13.1567 7.18752 12.9528 7.34727 12.736 7.43415C12.6627 7.46322 12.5727 7.49896 12.4788 7.52979C12.5076 7.63908 12.5317 7.77641 12.5524 7.9337C12.9574 7.89832 13.3683 7.7638 13.685 7.55816ZM11.7204 6.64838C11.7425 6.59023 11.7652 6.53243 11.7876 6.47567C11.8395 6.34431 11.8934 6.20873 11.932 6.07421C11.9884 5.87768 12.0262 5.71023 12.0283 5.53332C12.0297 5.44188 12.0262 5.35255 12.0199 5.26637C11.8153 5.2387 11.6128 5.21383 11.4114 5.19806C11.458 5.51685 11.4668 5.83985 11.4692 6.05915C11.4713 6.26338 11.4552 6.43679 11.4174 6.60985C11.527 6.60739 11.6276 6.62001 11.7204 6.64838ZM13.0043 8.3194L13.0463 8.31135C13.1287 8.29628 13.2117 8.28472 13.2919 8.27351C13.4184 8.25565 13.5491 8.23743 13.6769 8.20555C14.2455 8.06297 14.7965 7.83281 15.2607 7.62612C15.3651 7.57953 15.4583 7.52979 15.5459 7.47443C15.5249 7.08138 15.4008 6.68832 15.1833 6.36953C15.1633 6.33975 15.1409 6.30857 15.1167 6.27669C15.0425 6.37513 14.957 6.46517 14.8736 6.55239L14.8533 6.57341C14.7492 6.68236 14.6473 6.79762 14.5485 6.90937C14.455 7.01552 14.3579 7.12517 14.2591 7.22956C14.119 7.3767 13.968 7.47338 13.8083 7.57603C13.7824 7.59249 13.7561 7.60966 13.7295 7.62682C13.403 7.83877 12.9794 7.97784 12.5622 8.01463C12.5755 8.12743 12.5871 8.24864 12.5972 8.37511C12.7426 8.36915 12.8989 8.33937 13.0043 8.3194ZM16.9916 10.6178C16.9549 10.7352 16.9307 10.8424 16.9174 10.9503C16.9097 11.0102 16.9062 11.0719 16.9044 11.1339C17.0638 11.136 17.2179 11.1934 17.3584 11.3055C17.3602 11.3027 17.3623 11.2999 17.364 11.2975C17.391 11.2593 17.4166 11.2232 17.44 11.1931C17.5171 11.0932 17.5777 11.0064 17.6292 10.923C17.5602 10.8837 17.4915 10.847 17.4239 10.8133C17.2894 10.7468 17.1461 10.682 16.9916 10.6178ZM17.7711 13.1563C17.8384 13.1748 17.907 13.1881 17.9736 13.2011C18.0601 13.2179 18.1498 13.2351 18.2395 13.2649C18.5905 13.3819 18.9303 13.4201 19.2484 13.4495L19.2712 13.4516C19.3199 13.4558 19.37 13.46 19.4211 13.4635C19.4243 13.399 19.4232 13.3328 19.4169 13.2652C19.4102 13.1948 19.3997 13.1247 19.3861 13.0561C19.3286 13.0673 19.2666 13.076 19.1972 13.083C18.9892 13.1023 18.7702 13.1188 18.5436 13.1188C18.4188 13.1188 18.2917 13.1139 18.1631 13.1016C18.1421 13.0995 18.1165 13.0974 18.0874 13.0953C17.8888 13.0792 17.6797 13.0575 17.5259 13.0077C17.5196 13.0189 17.5133 13.0301 17.5073 13.0414C17.5322 13.0529 17.5567 13.0648 17.5812 13.0767C17.6478 13.109 17.7105 13.1391 17.7711 13.1563ZM14.9612 10.3803C14.9475 10.3838 14.9346 10.3877 14.9209 10.3912C15.005 10.7037 15.0929 10.9846 15.273 11.2435C15.3977 11.4215 15.5802 11.5938 15.8153 11.7571C15.8762 11.6916 15.9435 11.6278 16.0146 11.5672C15.9929 11.5399 15.9708 11.5105 15.948 11.48C15.9323 11.459 15.9183 11.44 15.9063 11.425C15.803 11.2947 15.714 11.1745 15.6678 11.0221C15.6538 10.9759 15.6377 10.9272 15.6208 10.876C15.5574 10.6858 15.487 10.4721 15.494 10.2773C15.3343 10.297 15.1563 10.3309 14.9612 10.3803ZM14.4298 10.7527C14.4827 10.8519 14.5377 10.9542 14.607 11.0337C14.6743 11.1111 14.752 11.1752 14.827 11.2369C14.8848 11.2845 14.9444 11.3339 15.0001 11.3893C15.0477 11.4372 15.0936 11.488 15.1377 11.5371C15.2152 11.6236 15.2887 11.7052 15.3707 11.77C15.4222 11.811 15.4709 11.8643 15.5224 11.9207C15.5501 11.9508 15.5781 11.9809 15.6065 12.0097C15.6492 11.9536 15.6934 11.8979 15.7392 11.8429C15.7459 11.8345 15.7529 11.8264 15.7599 11.8184C15.521 11.6513 15.3346 11.4744 15.2061 11.2901C15.019 11.0214 14.9286 10.7338 14.8428 10.4147C14.6645 10.4718 14.5068 10.5506 14.3737 10.6497C14.393 10.6841 14.4119 10.7187 14.4298 10.7527ZM14.1267 10.8981C14.2532 11.1023 14.4248 11.2999 14.6238 11.4712C14.8263 11.6453 15.0491 11.8023 15.2646 11.9543C15.3472 12.0125 15.4313 12.072 15.515 12.1326C15.5287 12.1134 15.5424 12.0941 15.5564 12.0752C15.5235 12.0426 15.4919 12.0086 15.4621 11.9757C15.4128 11.9221 15.3662 11.8713 15.3196 11.8342C15.2323 11.7651 15.1532 11.6769 15.0768 11.5917C15.0334 11.5434 14.9885 11.4936 14.9423 11.4471C14.8894 11.3945 14.8312 11.3465 14.7748 11.2999C14.6974 11.2362 14.6168 11.17 14.5454 11.0876C14.4697 11.0011 14.4126 10.8943 14.3576 10.7913C14.3418 10.7615 14.3254 10.731 14.3085 10.7012C14.25 10.7506 14.1831 10.8172 14.1267 10.8981ZM16.5993 10.4655C16.5054 10.4308 16.4101 10.3954 16.3145 10.3642C16.271 10.5628 16.2724 10.7338 16.3194 10.9419L16.3232 10.958C16.3446 11.0515 16.3723 11.1731 16.4129 11.2884C16.4704 11.2558 16.5282 11.2267 16.5849 11.2018C16.6644 11.1668 16.7436 11.1454 16.8221 11.1374C16.8238 11.0712 16.8277 11.005 16.8361 10.9401C16.8501 10.8252 16.876 10.7117 16.9156 10.587C16.8343 10.5541 16.7506 10.5215 16.6627 10.4889L16.5993 10.4655ZM17.4309 11.3448C17.4274 11.3497 17.4236 11.3549 17.4201 11.3598C17.432 11.371 17.4436 11.3822 17.4555 11.3942C17.5458 11.4873 17.6208 11.5903 17.6797 11.6972C17.8394 11.5795 17.9736 11.4239 18.1092 11.2383C17.9739 11.1367 17.8363 11.0452 17.7 10.9643C17.6467 11.0508 17.584 11.1402 17.5045 11.2432C17.4821 11.2719 17.4572 11.3073 17.4309 11.3448ZM18.174 11.2877C18.031 11.4835 17.8888 11.6474 17.7175 11.7711C17.7844 11.9151 17.8212 12.0643 17.8236 12.2086C17.8324 12.2069 17.8412 12.2055 17.8492 12.2037C17.8734 12.1992 17.8951 12.195 17.913 12.1925C18.0622 12.1698 18.1901 12.1361 18.3158 12.0874C18.4843 12.0219 18.6308 11.9428 18.7632 11.8461C18.5852 11.6383 18.3838 11.4513 18.174 11.2877ZM15.6983 10.8505C15.7154 10.902 15.7319 10.9517 15.7459 10.9983C15.7879 11.137 15.8727 11.2505 15.9705 11.3742C15.9831 11.39 15.9974 11.4096 16.0135 11.4309C16.0311 11.4548 16.0535 11.4849 16.0777 11.515C16.1621 11.4478 16.2511 11.3854 16.3411 11.3304C16.2963 11.2064 16.2661 11.0761 16.2434 10.9766L16.2399 10.9601C16.1891 10.7366 16.188 10.5537 16.2364 10.3397C16.0703 10.2899 15.9028 10.2553 15.7361 10.2591C15.6856 10.2602 15.6324 10.2637 15.577 10.2686C15.5669 10.4514 15.6359 10.6627 15.6983 10.8505ZM17.9252 12.2735C17.9084 12.2759 17.8874 12.2798 17.8646 12.2843C17.8496 12.2871 17.8352 12.2896 17.8208 12.2924C17.8205 12.2966 17.8205 12.3011 17.8201 12.3053C17.8107 12.4027 17.7844 12.4942 17.749 12.5821C17.8786 12.6003 18.0114 12.6014 18.1494 12.6028C18.2227 12.6035 18.2983 12.6038 18.3729 12.6073C18.636 12.6196 18.9177 12.5625 19.1713 12.4476C19.0736 12.2566 18.9524 12.0766 18.8154 11.9091C18.6763 12.0114 18.5225 12.0951 18.3456 12.1638C18.2143 12.215 18.0804 12.2496 17.9252 12.2735ZM18.3694 12.6893C18.2959 12.6858 18.2213 12.6851 18.1487 12.6844C18.0058 12.6833 17.8597 12.6816 17.7157 12.6592C17.6737 12.7495 17.6243 12.8364 17.5749 12.9219C17.5725 12.9261 17.57 12.9303 17.5676 12.9345C17.735 12.9843 17.9694 13.0035 18.0937 13.0137C18.1235 13.0161 18.1498 13.0182 18.1708 13.02C18.5267 13.054 18.8708 13.0312 19.1895 13.0014C19.2554 12.9951 19.3139 12.9867 19.3682 12.9762C19.3307 12.8189 19.2757 12.6672 19.2071 12.5215C18.965 12.6311 18.698 12.6907 18.4437 12.6907C18.4185 12.6907 18.394 12.6903 18.3694 12.6893ZM18.4686 13.6365C18.7926 13.7728 19.0662 13.8464 19.3276 13.8664C19.3724 13.769 19.4011 13.6604 19.4144 13.5451C19.3629 13.5416 19.3125 13.5374 19.2642 13.5332L19.241 13.5311C18.918 13.5013 18.5726 13.4621 18.2136 13.3426C18.1291 13.3143 18.0461 13.2985 17.9582 13.2813C17.8899 13.2684 17.8194 13.2547 17.749 13.2351C17.6814 13.2162 17.6124 13.1825 17.5455 13.1503C17.5203 13.138 17.4943 13.1258 17.4688 13.1139C17.4684 13.1146 17.4681 13.1149 17.4677 13.1156C17.6208 13.1874 17.7686 13.2701 17.913 13.3514C18.092 13.4519 18.2773 13.5556 18.4686 13.6365Z" fill="#E1BF4B"/>
    <path d="M9.34947 19.1197C9.34667 18.8969 9.39466 18.6534 9.4931 18.3904C9.49485 17.8649 9.32109 17.3236 9.15574 16.8952C9.06221 16.6524 8.97428 16.4128 8.92769 16.1508C8.88109 15.8894 8.49644 14.3042 8.36682 13.8884C8.25332 13.5241 8.1174 13.1678 7.9517 12.7996C7.70507 12.2521 7.39819 11.6474 6.87376 11.3983C6.74555 11.3374 6.59526 11.3073 6.43727 11.3073C6.24599 11.3073 6.04316 11.3517 5.85399 11.4393C5.52889 11.5903 5.29943 11.8397 5.22446 12.1235C5.07593 12.6865 5.38 13.2175 5.67392 13.7308C5.78287 13.9213 5.88621 14.1014 5.96574 14.2815C6.3087 15.0564 6.67163 16.079 6.42886 17.1145C6.38157 17.318 6.30485 17.5251 6.22357 17.7444C6.02739 18.2744 5.82456 18.8227 6.04561 19.331C6.26106 19.8263 6.85975 19.8971 7.32427 19.8691C7.42131 19.8631 7.5173 19.8561 7.61259 19.8487C7.83154 19.8319 8.05819 19.8144 8.28905 19.8172C8.67861 19.8221 8.95781 19.6981 9.1659 19.4287C9.24192 19.3306 9.30218 19.2269 9.34947 19.1197ZM6.8072 18.6125C6.80685 18.6142 6.80615 18.616 6.80545 18.6167C6.8058 18.616 6.8058 18.6153 6.80615 18.6146C6.8065 18.6139 6.80685 18.6135 6.8072 18.6125ZM6.7981 18.719C6.79774 18.7179 6.79774 18.7169 6.79739 18.7162C6.79739 18.7162 6.79739 18.7158 6.79739 18.7155C6.79774 18.7169 6.79774 18.7176 6.7981 18.719ZM6.50313 14.6405C6.49507 14.649 6.48456 14.6528 6.47405 14.6528C6.46354 14.6528 6.45338 14.649 6.44532 14.6412C6.27787 14.478 6.11918 14.2177 5.96048 13.8457C5.93666 13.79 5.90653 13.7301 5.875 13.6663C5.78287 13.4817 5.67848 13.2718 5.68513 13.0799C5.68618 13.0571 5.70545 13.0389 5.72752 13.0403C5.75029 13.041 5.76781 13.0599 5.76711 13.0827C5.76115 13.254 5.86064 13.4537 5.94822 13.6299C5.98045 13.6947 6.01093 13.7556 6.0358 13.8138C6.19029 14.1753 6.34303 14.4268 6.50243 14.5827C6.51889 14.5985 6.51889 14.6244 6.50313 14.6405ZM6.81561 19.4354C6.80896 19.4392 6.8016 19.4413 6.79459 19.4413C6.78058 19.4413 6.76727 19.4343 6.75956 19.4217C6.52204 19.0318 6.32306 18.4054 6.54341 17.9237C6.55287 17.9031 6.57704 17.894 6.59771 17.9034C6.61838 17.9129 6.62749 17.937 6.61803 17.9577C6.41064 18.4103 6.60227 19.0062 6.82927 19.379C6.84118 19.3982 6.83488 19.4235 6.81561 19.4354ZM7.03771 19.3036C7.02966 19.3124 7.0188 19.3166 7.00794 19.3166C6.99813 19.3166 6.98797 19.3131 6.97991 19.3054C6.87201 19.2038 6.82752 19.0511 6.78864 18.9158C6.77778 18.8791 6.76727 18.8426 6.75571 18.8083C6.74835 18.7866 6.75991 18.7634 6.78128 18.7564C6.80265 18.7491 6.82612 18.7606 6.83313 18.782C6.84504 18.8177 6.8559 18.8552 6.86711 18.8931C6.90494 19.0241 6.94418 19.1597 7.03596 19.2458C7.05243 19.2616 7.05348 19.2875 7.03771 19.3036ZM8.65269 16.664C8.65058 16.6643 8.64813 16.6643 8.64603 16.6643C8.62641 16.6643 8.6089 16.6503 8.60574 16.6304C8.59103 16.5438 8.58122 16.4531 8.57106 16.3571C8.54374 16.1049 8.51571 15.8439 8.3973 15.6477C8.38574 15.6284 8.3917 15.6032 8.41132 15.5917C8.43058 15.5801 8.45581 15.5861 8.46737 15.6057C8.59523 15.8173 8.62431 16.0874 8.65233 16.3483C8.66249 16.4433 8.6723 16.5326 8.68632 16.6167C8.69017 16.6391 8.67511 16.6601 8.65269 16.664ZM13.8329 19.1089C13.7257 19.0031 13.6454 18.8612 13.6223 18.6545C13.588 18.3515 13.685 18.0789 13.8048 17.8176C13.7257 17.5531 13.6157 17.3019 13.5085 17.057C13.4149 16.8437 13.3179 16.6233 13.2412 16.3942C13.0821 15.9182 13.0205 15.4046 12.9606 14.9078C12.9336 14.6833 12.9059 14.4514 12.8695 14.2286C12.7469 13.4778 12.6243 12.6795 12.5927 11.9021C12.5847 11.7133 12.5882 11.5217 12.591 11.3367C12.5938 11.172 12.5966 11.0018 12.5917 10.8347C12.5899 10.7786 12.5892 10.677 12.5878 10.5366C12.5812 9.79108 12.5636 7.81142 12.3436 7.38789C12.0935 6.9069 11.8406 6.6869 11.4496 6.6869C11.2342 6.6869 10.9767 6.75346 10.6551 6.88027C9.96183 7.15317 10.0571 7.83875 10.1198 8.29241C10.1296 8.36352 10.1391 8.43044 10.144 8.48754C10.1899 9.02072 10.2652 9.56021 10.3377 10.0818C10.3598 10.2388 10.3815 10.3957 10.4025 10.5527C10.4985 11.2635 10.55 11.9368 10.5602 12.6115C10.5644 12.8935 10.5829 13.1808 10.6005 13.4582C10.6236 13.8194 10.6474 14.1928 10.6411 14.5614C10.6323 15.0424 10.4999 15.4946 10.3721 15.9318C10.322 16.1024 10.2701 16.279 10.2263 16.4559C10.2078 16.5295 10.1899 16.603 10.172 16.6762C10.1205 16.8885 10.0673 17.1078 10.0046 17.3215C9.91629 17.6207 9.79613 17.8929 9.66896 18.1805L9.63428 18.2597C9.36909 18.8622 9.36313 19.3611 9.61676 19.7429C9.8266 20.0586 10.268 20.0309 10.6726 19.9622C10.7514 19.9489 10.8303 19.9332 10.9066 19.9181C11.1298 19.874 11.3607 19.8281 11.6031 19.8375C11.76 19.8435 11.9177 19.8628 12.0704 19.8813C12.2333 19.9013 12.4022 19.9216 12.5682 19.9258C13.0776 19.9384 13.4563 19.7577 13.6952 19.3888C13.7516 19.3019 13.7975 19.2084 13.8329 19.1089ZM10.9284 14.5705C10.8832 14.7222 10.8842 14.9075 10.8853 15.0865C10.886 15.193 10.8867 15.3033 10.8769 15.4028C10.8643 15.5363 10.8394 15.6705 10.8152 15.8004C10.7896 15.9374 10.763 16.0793 10.7521 16.2173C10.7504 16.2387 10.7322 16.2548 10.7112 16.2548C10.7101 16.2548 10.7091 16.2548 10.708 16.2548C10.6852 16.2531 10.6684 16.2331 10.6705 16.2107C10.6821 16.0684 10.7087 15.9245 10.7346 15.7854C10.7585 15.6572 10.783 15.5251 10.7956 15.3951C10.8047 15.2995 10.804 15.1965 10.8033 15.0872C10.8022 14.9019 10.8012 14.7106 10.8499 14.547C10.8565 14.5253 10.8793 14.513 10.901 14.5193C10.9228 14.526 10.935 14.5488 10.9284 14.5705ZM11.0068 11.9102C11.0033 11.9112 10.9998 11.9116 10.996 11.9116C10.9781 11.9116 10.9616 11.9 10.9567 11.8818C10.6961 10.9408 10.584 10.2136 10.5812 9.45021C10.5812 9.42744 10.5994 9.40923 10.6222 9.40923C10.645 9.40923 10.6632 9.42744 10.6632 9.44986C10.6656 10.2059 10.777 10.9265 11.0356 11.8601C11.0415 11.8818 11.0289 11.9042 11.0068 11.9102ZM12.8674 18.74C12.853 18.7743 12.8393 18.8118 12.825 18.8514C12.7879 18.9544 12.7493 19.0609 12.6835 19.1414C12.6754 19.1513 12.6635 19.1565 12.6519 19.1565C12.6428 19.1565 12.6334 19.1534 12.626 19.1474C12.6085 19.133 12.6057 19.1071 12.62 19.0896C12.6772 19.0199 12.7132 18.92 12.7483 18.8234C12.7626 18.7827 12.7766 18.7445 12.7921 18.7081C12.8008 18.6871 12.825 18.6773 12.8457 18.686C12.8667 18.6951 12.8765 18.719 12.8674 18.74ZM12.9742 19.1677C12.9672 19.1831 12.9525 19.1919 12.9367 19.1919C12.9311 19.1919 12.9255 19.1908 12.9203 19.1884C12.8996 19.1793 12.8901 19.1555 12.8993 19.1344C13.0215 18.8573 13.0737 18.5855 13.0737 18.2254C13.0737 18.2029 13.0919 18.1847 13.1147 18.1847C13.1371 18.1847 13.1557 18.2029 13.1557 18.2254C13.1557 18.5977 13.1014 18.8794 12.9742 19.1677ZM17.5052 12.8809C17.6152 12.6896 17.7193 12.5089 17.7396 12.2976C17.7669 12.0167 17.6391 11.7003 17.3977 11.4509C17.2453 11.2939 17.0758 11.2144 16.8978 11.2144C16.8067 11.2144 16.7135 11.2351 16.6189 11.2768C16.3261 11.406 16.0136 11.6429 15.8031 11.8951C15.3077 12.4889 14.9868 13.1482 14.8488 13.8548C14.7728 14.2426 14.7087 14.6402 14.6463 15.0245C14.5787 15.4438 14.5083 15.8775 14.4228 16.3011C14.3289 16.7666 14.1783 17.2284 13.9986 17.6021L13.9674 17.6662C13.8181 17.9745 13.6637 18.293 13.7036 18.645C13.7397 18.9645 13.9176 19.1138 14.1741 19.2399C14.5317 19.4157 14.868 19.5142 15.2643 19.5594L15.2748 19.5604C15.6626 19.6046 16.029 19.6463 16.4028 19.5639C16.7142 19.4953 17.0253 19.3989 17.191 19.1614C17.3553 18.926 17.4173 18.582 17.3613 18.2173C17.3332 18.0337 17.273 17.854 17.2145 17.6803C17.204 17.648 17.1931 17.6158 17.1826 17.5836C17.1262 17.4126 17.0856 17.2361 17.0463 17.0655C17.0313 17.0003 17.0166 16.9351 17.0004 16.87C16.8897 16.4153 16.7745 15.8835 16.8074 15.3219C16.8218 15.0767 17.0264 14.1165 17.0887 13.9098C17.1209 13.8036 17.1598 13.6985 17.1977 13.5966C17.2324 13.5034 17.2681 13.4067 17.2982 13.3104C17.3459 13.158 17.4268 13.0172 17.5052 12.8809ZM14.4484 17.2872C14.3226 17.4743 14.318 17.7114 14.4351 18.0337C14.4428 18.0548 14.4319 18.0782 14.4105 18.0859C14.406 18.0877 14.4011 18.0884 14.3965 18.0884C14.3797 18.0884 14.3643 18.0782 14.358 18.0614C14.2333 17.7177 14.2406 17.4494 14.3804 17.2413C14.393 17.2227 14.4186 17.2178 14.4372 17.2305C14.4561 17.2431 14.461 17.2683 14.4484 17.2872ZM15.6755 12.7677C15.417 13.1082 15.2163 13.5584 15.0951 14.0699C15.0905 14.0884 15.074 14.1011 15.0555 14.1011C15.0523 14.1011 15.0492 14.1007 15.046 14.1C15.0239 14.0947 15.0103 14.0727 15.0155 14.051C15.1395 13.5286 15.3452 13.068 15.6104 12.7183C15.624 12.7001 15.6496 12.6966 15.6675 12.7103C15.6857 12.7239 15.6892 12.7499 15.6755 12.7677ZM16.255 19.1306C16.207 19.1667 16.1534 19.1891 16.1015 19.2112C16.0661 19.2259 16.0329 19.2399 16.0013 19.2577C15.995 19.2616 15.988 19.2634 15.981 19.2634C15.967 19.2634 15.953 19.2556 15.9456 19.2427C15.9344 19.2227 15.9414 19.1978 15.961 19.1866C15.9968 19.1663 16.0336 19.1509 16.0696 19.1358C16.119 19.1148 16.166 19.0952 16.2059 19.0651C16.2238 19.0514 16.2494 19.0549 16.263 19.0731C16.2767 19.091 16.2732 19.1169 16.255 19.1306ZM16.9735 18.5736C16.978 18.5515 16.9994 18.5371 17.0218 18.5413C17.0439 18.5459 17.0582 18.5673 17.0537 18.5897C17.0032 18.843 16.8442 19.0118 16.6859 19.1628C16.6778 19.1705 16.6676 19.1744 16.6578 19.1744C16.647 19.1744 16.6361 19.1702 16.6281 19.1618C16.6123 19.1453 16.613 19.1194 16.6295 19.1036C16.8158 18.9256 16.9318 18.782 16.9735 18.5736Z" fill="#EBF892"/>
    <path d="M1.61465 10.5779C1.60274 10.6308 1.56841 10.6763 1.53373 10.6865C1.52532 10.689 1.50044 10.696 1.46541 10.6609C1.46471 10.6602 1.46401 10.6595 1.46331 10.6588C1.44299 10.6413 1.43774 10.6017 1.44965 10.5551C1.46471 10.4956 1.50465 10.4413 1.53863 10.4339C1.54003 10.4336 1.54248 10.4332 1.54564 10.4332C1.55404 10.4332 1.56806 10.4367 1.58557 10.4584C1.58697 10.4602 1.58837 10.4619 1.59013 10.4633C1.61675 10.4872 1.62586 10.5299 1.61465 10.5779ZM2.13102 9.45303C2.1678 9.44987 2.20389 9.4222 2.21545 9.38822C2.2249 9.35914 2.21475 9.33007 2.18567 9.30344C2.17026 9.29258 2.15274 9.28803 2.13487 9.28803C2.1079 9.28803 2.08092 9.29889 2.06271 9.315C2.04379 9.33147 2.02627 9.35984 2.04904 9.39978C2.06901 9.43761 2.09739 9.45618 2.13102 9.45303ZM1.84131 11.7697C1.85882 11.8019 1.91277 11.8023 1.95131 11.7981C1.97583 11.7711 2.01086 11.7413 2.0508 11.7073C2.12927 11.6408 2.24733 11.5402 2.24067 11.4775C2.23822 11.4576 2.2207 11.4383 2.18812 11.4208C2.17271 11.4148 2.15694 11.4124 2.14083 11.4124C2.06691 11.4124 1.98809 11.4691 1.93309 11.5308C1.85602 11.6173 1.81573 11.722 1.84131 11.7697ZM2.21019 10.3982C2.21895 10.381 2.23051 10.3463 2.20704 10.3099C2.19127 10.2847 2.17306 10.2721 2.15169 10.2721C2.15099 10.2721 2.15029 10.2721 2.14994 10.2721C2.12086 10.2731 2.08898 10.2959 2.07217 10.3281C2.06306 10.3453 2.05115 10.38 2.07427 10.4154C2.07427 10.4154 2.07427 10.4157 2.07462 10.4157C2.09038 10.4416 2.11 10.4546 2.13312 10.4532C2.1622 10.4525 2.19373 10.4297 2.21019 10.3982ZM2.64284 10.6613C2.70694 10.7135 2.78542 10.6893 2.81659 10.6763C2.89191 10.6448 2.94972 10.5779 2.95392 10.5173C2.95707 10.4739 2.9329 10.4367 2.88175 10.4062C2.8807 10.4055 2.88 10.4048 2.87895 10.4041C2.80048 10.3481 2.71605 10.3905 2.66771 10.4437C2.61551 10.5012 2.58573 10.5933 2.64284 10.6613ZM2.83691 7.96732C2.90452 7.9999 2.98019 7.93825 3.02433 7.87449C3.07758 7.79847 3.10386 7.69407 3.05972 7.64503C2.97704 7.61841 2.87019 7.69372 2.8201 7.78481C2.80013 7.82124 2.76194 7.91127 2.83691 7.96732ZM2.80083 9.92876C2.80223 9.92876 2.80398 9.92876 2.80573 9.92876C3.01768 9.92876 3.28077 9.6965 3.28987 9.54411C3.29618 9.43726 3.16656 9.40398 3.05691 9.39452C3.05586 9.39452 3.05516 9.39452 3.05411 9.39452C2.87895 9.36825 2.69468 9.54131 2.65895 9.7021C2.64178 9.78023 2.65264 9.88217 2.80083 9.92876ZM4.02975 10.0503C4.04026 10.0808 4.05988 10.099 4.0886 10.1043C4.12644 10.1116 4.17268 10.0945 4.1986 10.0636C4.21297 10.0465 4.22698 10.0181 4.21262 9.97921C4.1909 9.90914 4.13449 9.9186 4.11102 9.92596C4.05848 9.94207 4.01258 9.99427 4.02975 10.0503ZM6.3874 8.18767C6.37584 8.19748 6.3401 8.22796 6.39545 8.31274C6.44135 8.37124 6.57096 8.37895 6.6687 8.35127C6.73281 8.33271 6.76854 8.30363 6.77065 8.28436C6.77205 8.26965 6.75313 8.24267 6.69463 8.2115C6.69147 8.20974 6.68902 8.20799 6.68657 8.20589C6.64698 8.17051 6.57797 8.15194 6.51351 8.15194C6.46307 8.15194 6.41542 8.1635 6.3874 8.18767ZM6.79937 5.00257C6.8246 5.04321 6.86313 5.03655 6.89116 5.02324C6.94055 5.00047 6.98399 4.94127 6.96753 4.89327C6.95526 4.86104 6.93635 4.84248 6.91253 4.83932C6.88065 4.83547 6.84001 4.85824 6.81409 4.89502C6.80217 4.91184 6.77695 4.95598 6.79937 5.00257ZM7.73507 5.46289C7.79078 5.46745 7.82581 5.42856 7.84157 5.40544C7.8731 5.3592 7.88186 5.29964 7.86294 5.26041C7.84998 5.23378 7.82511 5.21907 7.78832 5.21627C7.71826 5.21872 7.66046 5.3021 7.6573 5.37286C7.65485 5.42716 7.68113 5.45729 7.73507 5.46289ZM8.05702 4.62002C8.12428 4.66171 8.26546 4.62913 8.40559 4.5384C8.53625 4.45397 8.62418 4.34327 8.61017 4.28091C8.59861 4.22942 8.51103 4.2105 8.46024 4.20349C8.45288 4.20279 8.44587 4.19999 8.44027 4.19544C8.35023 4.12467 8.25074 4.18983 8.1996 4.23502C8.0868 4.33451 8.00447 4.51738 8.05702 4.62002ZM8.77517 4.84668C8.81125 4.8628 8.8589 4.85684 8.88973 4.83162C8.90549 4.81901 8.92231 4.79623 8.9132 4.76085C8.9125 4.75805 8.9118 4.75525 8.9118 4.75209C8.91075 4.71986 8.89919 4.71741 8.89358 4.71636C8.8582 4.70936 8.78568 4.75209 8.76466 4.80044C8.7559 4.82041 8.75906 4.83372 8.77517 4.84668ZM9.42817 3.67346C9.4082 3.69868 9.41661 3.72531 9.42992 3.74037C9.43622 3.74773 9.46005 3.7698 9.49403 3.74773C9.51715 3.73161 9.52906 3.712 9.52661 3.69308C9.5245 3.67696 9.51189 3.6626 9.49473 3.6563C9.47371 3.64859 9.45024 3.65454 9.42817 3.67346ZM9.56549 4.58289C9.60333 4.62248 9.72874 4.64244 9.82858 4.62388C9.88954 4.61267 9.91686 4.59165 9.92177 4.57693C9.92632 4.56362 9.91616 4.54155 9.89374 4.51633C9.81947 4.45748 9.62855 4.427 9.56374 4.47955C9.55498 4.4869 9.52801 4.50862 9.56549 4.58289ZM12.7867 3.83566C12.8315 3.88225 12.9198 3.90432 12.965 3.8805C12.9737 3.87595 12.9997 3.86228 12.9895 3.80343C12.9716 3.774 12.9356 3.75088 12.8921 3.74072C12.8469 3.72986 12.8003 3.73512 12.7685 3.75368C12.7608 3.7698 12.7527 3.80063 12.7867 3.83566ZM13.5984 4.10786C13.6187 4.20384 13.7914 4.29913 13.9343 4.3247C14.01 4.33802 14.0692 4.32996 14.0857 4.30404C14.0923 4.29353 14.1074 4.25044 14.0244 4.13378C13.9368 4.0441 13.7889 3.96318 13.6656 3.99155C13.6127 4.02904 13.59 4.06827 13.5984 4.10786ZM13.7595 3.71585C13.784 3.73897 13.8264 3.75439 13.8601 3.75158C13.8783 3.75018 13.8919 3.74423 13.9014 3.73337C13.9123 3.70184 13.9045 3.67872 13.8769 3.6605C13.8345 3.63282 13.7679 3.63388 13.7469 3.65489C13.7329 3.66926 13.7497 3.70009 13.7595 3.71585ZM14.5849 10.0794C14.5744 10.0475 14.5484 10.0374 14.5288 10.0349C14.525 10.0342 14.5208 10.0342 14.5166 10.0342C14.4882 10.0342 14.4595 10.0468 14.4465 10.0664C14.4353 10.0829 14.437 10.1036 14.451 10.1281C14.4514 10.1284 14.4517 10.1291 14.4521 10.1298C14.4724 10.1687 14.5169 10.1638 14.54 10.1544C14.5673 10.1435 14.5957 10.1172 14.5849 10.0794ZM14.4654 4.9262C14.4966 4.98646 14.5491 5.02009 14.6055 5.01553C14.6455 5.01238 14.6788 4.99031 14.6889 4.96053C14.7005 4.92515 14.6788 4.87996 14.6294 4.83652C14.6283 4.83547 14.6269 4.83442 14.6259 4.83302C14.5961 4.79974 14.554 4.78643 14.5159 4.78643C14.4843 4.78643 14.4559 4.79553 14.4388 4.81025C14.4048 4.84037 14.4314 4.88557 14.4598 4.91815C14.4619 4.9206 14.4637 4.9234 14.4654 4.9262ZM15.7504 9.67513L15.7493 9.67478C15.742 9.67373 15.7343 9.67303 15.7266 9.67303C15.6596 9.67303 15.5742 9.71577 15.5559 9.76166C15.5528 9.77007 15.543 9.79529 15.5976 9.83102C15.6999 9.89268 15.8145 9.87131 15.8775 9.82472C15.9084 9.80195 15.9241 9.77532 15.9189 9.7543C15.9119 9.72663 15.8639 9.69159 15.7504 9.67513ZM15.9217 6.44238C15.9714 6.46551 16.0114 6.45219 16.0408 6.40315C16.0804 6.33659 16.0797 6.22589 16.0194 6.1828C16.0173 6.1814 16.0152 6.17964 16.0135 6.17754C15.9497 6.10993 15.8905 6.0763 15.8544 6.08751C15.8309 6.09487 15.8131 6.12464 15.8068 6.16738C15.7938 6.25286 15.8299 6.37793 15.9217 6.44238ZM16.4843 9.35494C16.4731 9.33147 16.4594 9.32096 16.4405 9.31991C16.4097 9.3185 16.3697 9.34198 16.3501 9.37421C16.34 9.39067 16.3309 9.41589 16.3463 9.44182C16.3802 9.50067 16.4367 9.47229 16.4479 9.46599C16.4839 9.44532 16.5106 9.40153 16.4843 9.35494ZM17.4796 10.161C17.4333 10.1824 17.42 10.2318 17.4428 10.2934C17.476 10.3467 17.5608 10.3547 17.613 10.3253C17.6505 10.3043 17.6579 10.2717 17.634 10.2283C17.5948 10.1554 17.5265 10.1393 17.4796 10.161ZM18.1126 9.08239C18.1042 9.05156 18.0807 9.04105 18.059 9.04105C18.0541 9.04105 18.0488 9.04175 18.0443 9.0428C18.0355 9.04456 17.9921 9.05612 17.9991 9.10551C17.9994 9.10656 17.9994 9.10796 17.9994 9.10901C18.0019 9.14685 18.0155 9.17277 18.0383 9.18188C18.0572 9.18959 18.081 9.18468 18.0975 9.16962C18.1185 9.15035 18.1238 9.11952 18.1126 9.08239ZM18.6727 10.3488C18.6696 10.346 18.6668 10.3428 18.6643 10.3393C18.6125 10.2546 18.5298 10.2251 18.4689 10.2251C18.4639 10.2251 18.4594 10.2251 18.4548 10.2255C18.4107 10.229 18.3774 10.2479 18.3659 10.2763C18.3501 10.3138 18.3715 10.3709 18.4244 10.4329C18.4265 10.4353 18.4286 10.4385 18.43 10.4413C18.4969 10.5793 18.6111 10.622 18.6892 10.6171C18.74 10.6136 18.7785 10.5905 18.7897 10.5565C18.8073 10.5043 18.7635 10.4266 18.6727 10.3488ZM19.2098 11.2218C19.2091 11.2193 19.2091 11.2169 19.2091 11.2141C19.2101 11.1633 19.1898 11.1272 19.1509 11.1093C19.1345 11.102 19.1159 11.0981 19.097 11.0981C19.0633 11.0981 19.0294 11.1097 19.0059 11.1307C18.9751 11.1584 18.967 11.1983 18.9831 11.2463C18.9835 11.247 18.9835 11.2481 18.9838 11.2488C19.0038 11.3272 19.0781 11.3605 19.138 11.3476C19.1944 11.3356 19.2213 11.2883 19.2098 11.2218ZM19.4417 10.6711C19.4403 10.6711 19.4389 10.6711 19.4378 10.6714C19.4133 10.6763 19.3821 10.7173 19.3769 10.7643C19.3741 10.7912 19.379 10.827 19.4196 10.8452C19.4203 10.8455 19.4214 10.8459 19.4224 10.8462C19.4624 10.868 19.4764 10.8522 19.482 10.8459C19.5061 10.8189 19.5111 10.7503 19.482 10.7089C19.4711 10.6897 19.4571 10.6711 19.4417 10.6711ZM19.9423 12.3246C19.9416 12.3232 19.9409 12.3214 19.9402 12.32C19.9115 12.2451 19.8747 12.1999 19.8425 12.1992C19.8207 12.1974 19.7962 12.2202 19.7808 12.2545C19.7538 12.3141 19.7549 12.4048 19.8176 12.4738C19.8519 12.5012 19.8848 12.5036 19.9132 12.4805C19.9511 12.4497 19.9717 12.3796 19.9423 12.3246Z" fill="#F6E5CF"/>
</svg>
